<?xml version="1.0" encoding="UTF-8" standalone="no"?><!DOCTYPE svg PUBLIC "-//W3C//DTD SVG 1.1//EN" "http://www.w3.org/Graphics/SVG/1.1/DTD/svg11.dtd"><svg width="100%" height="100%" viewBox="0 0 538 213" version="1.1" xmlns="http://www.w3.org/2000/svg" xmlns:xlink="http://www.w3.org/1999/xlink" xml:space="preserve" xmlns:serif="http://www.serif.com/" style="fill-rule:evenodd;clip-rule:evenodd;stroke-linejoin:round;stroke-miterlimit:2;"><path d="M485.078,212.126l-485.078,-0l52.889,-212.126l485.078,-0l-52.889,212.126Z" style="fill:#1a1918;"/><path d="M114.18,150.9l75.332,0c55.748,-45.815 122.593,-78.62 195.909,-93.731c-102.02,1.112 -195.949,35.894 -271.241,93.731m108.415,0l92.645,0c41.931,-50.464 102.154,-85.188 170.529,-93.891c-12.046,-1.397 -24.291,-2.14 -36.711,-2.14c-88.893,0 -169.176,36.823 -226.463,96.031" style="fill:#009ee3;fill-rule:nonzero;"/><path d="M154.008,99.677c0.835,-0 1.462,-0.176 1.881,-0.531c0.418,-0.352 0.724,-0.948 0.917,-1.784l2.894,-12.445c0.063,-0.193 0.096,-0.449 0.096,-0.772c-0,-1.157 -0.74,-1.736 -2.219,-1.736l-46.498,-0l10.998,-47.752c0.063,-0.193 0.096,-0.449 0.096,-0.772c-0,-1.158 -0.74,-1.736 -2.219,-1.736l-16.206,-0c-0.837,-0 -1.464,0.178 -1.882,0.53c-0.419,0.354 -0.723,0.95 -0.916,1.785l-14.47,62.705c-0.065,0.193 -0.097,0.451 -0.097,0.772c-0,1.157 0.739,1.736 2.219,1.736l65.406,-0Zm27.397,-67.528c-0.837,-0 -1.464,0.178 -1.881,0.53c-0.419,0.354 -0.724,0.95 -0.917,1.785l-14.47,62.705c-0.065,0.193 -0.096,0.451 -0.096,0.772c-0,1.157 0.738,1.736 2.218,1.736l72.641,-0c0.836,-0 1.463,-0.176 1.882,-0.531c0.417,-0.352 0.723,-0.948 0.916,-1.784l2.798,-12.059c0.063,-0.193 0.096,-0.449 0.096,-0.772c-0,-1.157 -0.74,-1.736 -2.219,-1.736l-53.733,-0l2.122,-9.165l42.061,-0c0.835,-0 1.479,-0.176 1.929,-0.53c0.45,-0.353 0.772,-0.948 0.965,-1.785l2.508,-11.094c0.064,-0.193 0.097,-0.449 0.097,-0.772c-0,-1.157 -0.74,-1.736 -2.219,-1.736l-41.675,-0l2.026,-8.682l53.155,-0c0.835,-0 1.462,-0.177 1.881,-0.531c0.417,-0.353 0.723,-0.948 0.916,-1.785l2.798,-12.058c0.063,-0.193 0.096,-0.449 0.096,-0.772c-0,-1.158 -0.74,-1.736 -2.219,-1.736l-71.676,-0Zm140.266,67.528c4.887,-0 8.827,-1.286 11.817,-3.859c2.991,-2.571 5.097,-6.495 6.319,-11.769l4.245,-18.522c0.063,-0.193 0.096,-0.449 0.096,-0.772c-0,-1.157 -0.74,-1.736 -2.219,-1.736l-43.7,-0c-0.837,-0 -1.464,0.178 -1.881,0.53c-0.419,0.355 -0.724,0.95 -0.917,1.785l-2.026,8.682c-0.064,0.193 -0.096,0.451 -0.096,0.772c-0,1.158 0.738,1.736 2.219,1.736l23.828,-0l-0.869,3.956c-0.193,0.964 -0.627,1.753 -1.302,2.363c-0.675,0.612 -1.399,0.917 -2.171,0.917l-36.175,-0c-3.859,-0 -5.789,-1.414 -5.789,-4.245c-0,-0.642 0.097,-1.351 0.29,-2.122l5.595,-24.118c0.449,-1.799 1.124,-3.118 2.026,-3.955c0.9,-0.835 2.154,-1.254 3.762,-1.254l33.861,-0c1.671,-0 2.99,0.354 3.955,1.061c0.965,0.709 1.447,1.673 1.447,2.894c-0,0.323 -0.065,0.805 -0.193,1.447l-0.193,0.772c-0.065,0.193 -0.096,0.482 -0.096,0.868c-0,1.095 0.738,1.64 2.219,1.64l17.653,-0c0.835,-0 1.479,-0.176 1.93,-0.53c0.449,-0.353 0.771,-0.948 0.964,-1.785l0.676,-2.798c0.514,-2.25 0.771,-4.244 0.771,-5.981c-0,-4.308 -1.432,-7.636 -4.292,-9.984c-2.863,-2.347 -7.059,-3.521 -12.59,-3.521l-53.733,-0c-4.888,-0 -8.827,1.287 -11.817,3.858c-2.991,2.573 -5.098,6.497 -6.319,11.77l-7.525,32.413c-0.45,1.994 -0.675,3.924 -0.675,5.788c-0,4.375 1.414,7.751 4.245,10.13c2.829,2.38 7.009,3.569 12.541,3.569l54.119,-0Z" style="fill:#fff;fill-rule:nonzero;"/><path d="M79.445,182.787l11.536,0l0.742,-2.976l-7.984,0l2.146,-8.608l-3.552,0l-2.888,11.584Zm13.797,-4.064c-0.845,3.392 0.859,4.192 4.059,4.192l5.696,0c3.2,0 5.304,-0.8 6.149,-4.192l0.862,-3.456c0.846,-3.392 -0.859,-4.192 -4.059,-4.192l-5.696,0c-3.2,0 -5.303,0.8 -6.149,4.192l-0.862,3.456Zm4.235,-2.352c0.359,-1.44 0.93,-2.32 2.802,-2.32l4.16,0c1.872,0 2.005,0.88 1.646,2.32l-0.311,1.248c-0.419,1.68 -0.931,2.32 -2.611,2.32l-4.544,0c-1.68,0 -1.872,-0.64 -1.453,-2.32l0.311,-1.248Zm13.557,2.352c-0.845,3.392 0.859,4.192 4.059,4.192l4.272,0c4,0 5.768,-0.16 6.598,-3.488l0.822,-3.296l-7.968,0l-0.599,2.4l4.416,0l-0.084,0.336c-0.279,1.12 -1.243,1.264 -2.171,1.264l-3.792,0c-1.792,0 -2.148,-0.432 -1.653,-2.416l0.359,-1.44c0.494,-1.984 1.066,-2.416 2.858,-2.416l3.856,0c1.136,0 1.756,0.144 1.469,1.296l3.488,0l0.092,-0.368c0.562,-2.256 0.365,-3.712 -3.667,-3.712l-5.344,0c-3.2,0 -5.303,0.8 -6.149,4.192l-0.862,3.456Zm16.427,4.064l3.552,0l2.888,-11.584l-3.552,0l-2.888,11.584Zm6.682,-2.992c-0.626,2.512 0.518,3.12 3.75,3.12l4.304,0c4.72,0 5.904,-0.512 6.682,-3.632c0.841,-3.376 -0.355,-3.712 -5.879,-3.696c-3.812,0.016 -4.236,-0.016 -3.985,-1.024c0.156,-0.624 0.768,-0.896 1.568,-0.896l3.936,0c1.632,0 1.64,0.352 1.429,1.2l3.552,0l0.091,-0.368c0.507,-2.032 0.47,-3.424 -3.626,-3.424l-4.96,0c-4.48,0 -5.075,1.616 -5.597,3.712c-0.71,2.848 -0.262,3.488 5.082,3.488c4.576,0 4.976,0.064 4.725,1.072c-0.224,0.896 -1.012,0.976 -1.764,0.976l-4.352,0c-1.024,0 -1.496,-0.096 -1.205,-1.328l-3.552,0l-0.199,0.8Zm17.375,-5.712l4.992,0l-2.17,8.704l3.552,0l2.17,-8.704l4.992,0l0.718,-2.88l-13.536,0l-0.718,2.88Zm13.11,8.704l3.552,0l2.888,-11.584l-3.552,0l-2.888,11.584Zm6.144,0l3.552,0l1.109,-4.448l1.568,0l4.011,4.448l5.024,0l-5.532,-5.92l7.684,-5.664l-4.832,0l-5.541,4.256l-1.664,0l1.061,-4.256l-3.552,0l-2.888,11.584Zm17.664,0l3.36,0l0.814,-3.264l-3.36,0l-0.814,3.264Zm14.736,0l12.88,0l0.694,-2.784l-9.328,0l0.463,-1.856l8.64,0l0.598,-2.4l-8.64,0l0.463,-1.856l9.12,0l0.67,-2.688l-12.672,0l-2.888,11.584Zm15.216,0l3.552,0l2.888,-11.584l-3.552,0l-2.888,11.584Zm6.144,0l3.552,0l2.098,-8.416l0.032,0l4.574,8.416l5.504,0l2.888,-11.584l-3.552,0l-2.098,8.416l-0.032,0l-4.574,-8.416l-5.504,0l-2.888,11.584Zm18.16,0l3.552,0l0.985,-3.952l8.144,0l0.671,-2.688l-8.144,0l0.538,-2.16l8.544,0l0.694,-2.784l-12.096,0l-2.888,11.584Zm12.224,0l3.968,0l1.551,-2.048l7.2,0l0.593,2.048l3.952,0l-3.48,-11.584l-4.624,0l-9.16,11.584Zm10.794,-8.896l1.219,4.352l-4.544,0l3.325,-4.352Zm8.491,4.832c-0.845,3.392 0.859,4.192 4.059,4.192l5.728,0c3.568,0 4.655,-1.536 5.142,-3.488l0.271,-1.088l-3.552,0c-0.359,1.44 -0.879,1.6 -2.479,1.6l-3.792,0c-1.68,0 -1.872,-0.64 -1.453,-2.32l0.311,-1.248c0.359,-1.44 0.93,-2.32 2.802,-2.32l3.872,0c1.056,0 1.604,0.24 1.397,1.072l-0.08,0.32l3.552,0c0.85,-3.28 0.465,-4.368 -4.591,-4.368l-4.176,0c-3.2,0 -5.303,0.8 -6.149,4.192l-0.862,3.456Zm16.234,4.064l3.552,0l1.093,-4.384l7.488,0l-1.093,4.384l3.552,0l2.888,-11.584l-3.552,0l-1.029,4.128l-7.488,0l1.029,-4.128l-3.552,0l-2.888,11.584Zm25.653,-4.064c-0.845,3.392 0.859,4.192 4.059,4.192l4.272,0c4,0 5.768,-0.16 6.598,-3.488l0.822,-3.296l-7.968,0l-0.599,2.4l4.416,0l-0.084,0.336c-0.279,1.12 -1.243,1.264 -2.171,1.264l-3.792,0c-1.792,0 -2.148,-0.432 -1.653,-2.416l0.359,-1.44c0.494,-1.984 1.066,-2.416 2.858,-2.416l3.856,0c1.136,0 1.756,0.144 1.469,1.296l3.488,0l0.092,-0.368c0.562,-2.256 0.365,-3.712 -3.667,-3.712l-5.344,0c-3.2,0 -5.303,0.8 -6.149,4.192l-0.862,3.456Zm16.235,4.064l12.88,0l0.694,-2.784l-9.328,0l0.463,-1.856l8.64,0l0.598,-2.4l-8.64,0l0.463,-1.856l9.12,0l0.67,-2.688l-12.672,0l-2.888,11.584Zm15.024,0l3.456,0l2.074,-8.32l0.032,0l2.582,8.32l2.656,0l6.73,-8.32l0.032,0l-2.074,8.32l3.456,0l2.888,-11.584l-5.456,0l-5.875,7.456l-2.157,-7.456l-5.456,0l-2.888,11.584Zm20.208,0l3.968,0l1.551,-2.048l7.2,0l0.593,2.048l3.952,0l-3.48,-11.584l-4.624,0l-9.16,11.584Zm10.794,-8.896l1.219,4.352l-4.544,0l3.325,-4.352Zm8.491,4.832c-0.845,3.392 0.859,4.192 4.059,4.192l5.728,0c3.568,0 4.655,-1.536 5.142,-3.488l0.271,-1.088l-3.552,0c-0.359,1.44 -0.879,1.6 -2.479,1.6l-3.792,0c-1.68,0 -1.872,-0.64 -1.453,-2.32l0.311,-1.248c0.359,-1.44 0.93,-2.32 2.802,-2.32l3.872,0c1.056,0 1.604,0.24 1.397,1.072l-0.08,0.32l3.552,0c0.85,-3.28 0.465,-4.368 -4.591,-4.368l-4.176,0c-3.2,0 -5.303,0.8 -6.149,4.192l-0.862,3.456Zm16.235,4.064l3.552,0l1.093,-4.384l7.488,0l-1.093,4.384l3.552,0l2.888,-11.584l-3.552,0l-1.029,4.128l-7.488,0l1.029,-4.128l-3.552,0l-2.888,11.584Zm18.314,-8.704l4.992,0l-2.17,8.704l3.552,0l2.17,-8.704l4.992,0l0.718,-2.88l-13.536,0l-0.718,2.88Zm11.926,8.704l3.36,0l0.814,-3.264l-3.36,0l-0.814,3.264Z" style="fill:#009ee3;fill-rule:nonzero;"/></svg>